HIERARCHY
ROOT Hips
{
	OFFSET -13.091600 -28.302996 44.698402
	CHANNELS 6 Xposition Yposition Zposition Zrotation Xrotation Yrotation
	JOINT Chest
	{
		OFFSET -0.673000 0.623899 5.369202
		CHANNELS 6 Xposition Yposition Zposition Zrotation Xrotation Yrotation
		JOINT Chest2
		{
			OFFSET 0.000000 0.000000 4.415001
			CHANNELS 6 Xposition Yposition Zposition Zrotation Xrotation Yrotation
			JOINT Neck
			{
				OFFSET 0.000000 0.000002 10.273300
				CHANNELS 6 Xposition Yposition Zposition Zrotation Xrotation Yrotation
				JOINT Head
				{
					OFFSET 0.000000 0.000000 2.173897
					CHANNELS 6 Xposition Yposition Zposition Zrotation Xrotation Yrotation
					End Site
					{
						OFFSET 0.000000 0.000000 9.961800
					}
				}
			}
			JOINT LeftCollar
			{
				OFFSET 2.359900 -0.565201 5.928101
				CHANNELS 6 Xposition Yposition Zposition Zrotation Xrotation Yrotation
				JOINT LeftShoulder
				{
					OFFSET 5.443700 0.000000 0.000000
					CHANNELS 6 Xposition Yposition Zposition Zrotation Xrotation Yrotation
					JOINT LeftElbow
					{
						OFFSET 0.000000 0.000000 -10.615799
						CHANNELS 6 Xposition Yposition Zposition Zrotation Xrotation Yrotation
						JOINT LeftWrist
						{
							OFFSET 0.000000 -0.000002 -13.110302
							CHANNELS 6 Xposition Yposition Zposition Zrotation Xrotation Yrotation
							End Site
							{
								OFFSET 0.000000 0.000000 -2.173901
							}
						}
					}
				}
			}
			JOINT RightCollar
			{
				OFFSET -2.636600 -1.718800 6.889698
				CHANNELS 6 Xposition Yposition Zposition Zrotation Xrotation Yrotation
				JOINT RightShoulder
				{
					OFFSET -4.139101 0.000000 0.000000
					CHANNELS 6 Xposition Yposition Zposition Zrotation Xrotation Yrotation
					JOINT RightElbow
					{
						OFFSET 0.000000 0.000000 -10.471802
						CHANNELS 6 Xposition Yposition Zposition Zrotation Xrotation Yrotation
						JOINT RightWrist
						{
							OFFSET 0.000000 0.000000 -12.281898
							CHANNELS 6 Xposition Yposition Zposition Zrotation Xrotation Yrotation
							End Site
							{
								OFFSET 0.000000 -0.000002 -2.173901
							}
						}
					}
				}
			}
		}
	}
	JOINT LeftHip
	{
		OFFSET 2.273400 0.176701 -2.518002
		CHANNELS 6 Xposition Yposition Zposition Zrotation Xrotation Yrotation
		JOINT LeftKnee
		{
			OFFSET 0.000000 -0.000002 -20.456402
			CHANNELS 6 Xposition Yposition Zposition Zrotation Xrotation Yrotation
			JOINT LeftAnkle
			{
				OFFSET 0.000000 -0.000002 -16.635300
				CHANNELS 6 Xposition Yposition Zposition Zrotation Xrotation Yrotation
				End Site
				{
					OFFSET 0.000000 -8.812399 0.000001
				}
			}
		}
	}
	JOINT RightHip
	{
		OFFSET -1.914800 0.018101 -2.699299
		CHANNELS 6 Xposition Yposition Zposition Zrotation Xrotation Yrotation
		JOINT RightKnee
		{
			OFFSET 0.000000 -0.000002 -20.148901
			CHANNELS 6 Xposition Yposition Zposition Zrotation Xrotation Yrotation
			JOINT RightAnkle
			{
				OFFSET 0.000000 -0.000002 -16.838301
				CHANNELS 6 Xposition Yposition Zposition Zrotation Xrotation Yrotation
				End Site
				{
					OFFSET 0.000000 -8.328398 0.000001
				}
			}
		}
	}
}
MOTION
Frames: 6
Frame Time: 0.041667
-18.584299 0.360004 18.559502 1808.488418 18.327906 -8.349507 -0.672997 0.623891 5.369211 -14.264724 34.376680 31.065032 -0.000001 -0.000005 4.415001 12.959777 -7.334080 0.338193 -0.000001 0.000001 10.273301 4.806133 19.738320 8.437382 -0.000001 -0.000001 2.173897 1.268072 -4.514709 -0.130310 2.359898 -0.565202 5.928098 -7.347065 12.221223 0.092972 5.443696 -0.000002 -0.000001 -63.379197 -0.683886 -90.195660 -0.000000 -0.000003 -10.615794 530.621551 -177.462221 178.549601 0.000000 -0.000007 -13.110298 -1048.342568 9.994904 -2.874214 -2.636604 -1.718798 6.889701 194.096819 -197.090682 189.120698 -4.139099 0.000001 -0.000001 458.729548 -392.367512 458.527866 0.000002 -0.000005 -10.471794 -3.125102 -15.832594 -368.883737 -0.000003 -0.000001 -12.281898 373.382673 10.196590 33.928070 2.273399 0.176693 -2.518002 -34.571061 -146.309714 -45.035102 0.000003 -0.000005 -20.456398 21.626662 172.692550 -47.541282 -0.000008 -0.000006 -16.635296 71.364118 17.676552 42.455271 -1.914792 0.018101 -2.699294 39.454045 196.038519 100.580580 0.000001 -0.000007 -20.148907 -6.205516 -192.079304 29.092429 -0.000001 -0.000006 -16.838308 402.140365 64.359145 -90.414397
-18.705700 0.541008 18.389099 1807.670434 17.628544 -8.708472 -0.672998 0.623893 5.369203 -13.947361 34.339114 31.172468 0.000001 -0.000000 4.415005 12.819621 -7.359595 0.184083 -0.000002 -0.000002 10.273301 5.230355 20.368843 8.654493 0.000004 -0.000003 2.173901 1.324561 -4.128656 -0.096978 2.359899 -0.565205 5.928099 -6.912069 12.349491 -0.245402 5.443691 0.000002 0.000002 -63.664555 -0.772593 -90.955334 -0.000001 -0.000002 -10.615801 534.117132 -174.209999 178.347796 0.000001 -0.000005 -13.110295 -1056.706981 8.429391 -1.662090 -2.636599 -1.718807 6.889702 193.970228 -196.956906 189.925445 -4.139099 0.000008 0.000000 459.244489 -391.814703 460.159024 0.000000 -0.000005 -10.471794 -2.605554 -17.649125 -369.993752 -0.000001 -0.000001 -12.281897 376.711352 9.734939 34.551543 2.273397 0.176704 -2.518006 -34.715789 -145.962481 -45.385193 0.000003 -0.000002 -20.456394 21.028281 172.603361 -47.407172 -0.000006 -0.000005 -16.635298 71.187332 18.219405 42.846309 -1.914798 0.018097 -2.699304 40.052052 196.503723 100.360074 0.000003 -0.000000 -20.148907 -6.414898 -192.269279 28.537654 -0.000002 -0.000002 -16.838306 400.658924 63.599948 -86.722727
-18.818197 0.727203 18.210207 1806.929823 16.979157 -9.102924 -0.672997 0.623893 5.369203 -13.674803 34.252965 31.248105 0.000004 0.000002 4.415003 12.670588 -7.415549 0.193829 0.000000 -0.000003 10.273303 5.753441 20.978366 8.604702 -0.000001 -0.000010 2.173903 1.380949 -3.694499 -0.038376 2.359900 -0.565206 5.928100 -6.392084 12.552465 -0.802853 5.443695 -0.000001 -0.000001 -63.732345 -0.887888 -91.879650 0.000002 -0.000001 -10.615789 537.925755 -170.575669 178.689374 0.000003 -0.000008 -13.110296 -1065.863260 6.497311 0.128276 -2.636600 -1.718801 6.889704 193.949560 -196.819715 190.457708 -4.139097 0.000007 0.000001 459.646705 -391.098271 461.953178 0.000002 0.000000 -10.471799 -2.048836 -19.409550 -370.929160 0.000001 -0.000001 -12.281897 380.114999 8.958965 34.497226 2.273399 0.176696 -2.518009 -34.829792 -145.687334 -45.638115 0.000001 0.000001 -20.456396 20.647892 172.619275 -47.227644 -0.000008 -0.000005 -16.635300 71.259145 18.608473 43.067771 -1.914795 0.018098 -2.699300 40.594024 196.942808 100.067346 0.000002 -0.000002 -20.148905 -6.745538 -192.226795 28.077844 -0.000001 -0.000005 -16.838306 398.467116 62.939613 -81.717449
-18.924400 0.920502 18.022705 1806.280245 16.393518 -9.617853 -0.672998 0.623898 5.369203 -13.512688 34.085362 31.400753 0.000002 0.000000 4.415007 12.547806 -7.487395 0.201204 -0.000001 -0.000003 10.273303 6.302061 21.539345 8.461014 0.000000 -0.000005 2.173900 1.438225 -3.225733 0.055178 2.359900 -0.565202 5.928101 -5.757558 12.692330 -1.506474 5.443694 0.000008 0.000003 -63.804963 -1.129594 -92.650396 -0.000000 -0.000001 -10.615791 541.414233 -166.847984 179.278641 0.000000 -0.000006 -13.110294 -1074.962383 3.962612 2.305833 -2.636602 -1.718804 6.889705 193.798695 -196.517793 190.952541 -4.139099 0.000001 0.000000 460.007285 -390.330722 463.759299 -0.000001 -0.000005 -10.471803 -1.606324 -21.250971 -371.873365 -0.000001 -0.000004 -12.281898 383.305490 8.268064 34.156543 2.273396 0.176703 -2.518005 -34.928536 -145.465954 -45.872346 0.000001 -0.000002 -20.456394 20.483430 172.805029 -47.150329 -0.000009 -0.000006 -16.635296 71.424244 18.996132 43.363580 -1.914798 0.018108 -2.699304 41.004047 197.305314 99.604649 0.000001 0.000002 -20.148903 -7.034399 -192.061026 27.682581 0.000002 -0.000004 -16.838305 395.660919 62.418681 -75.484785
-19.025700 1.118011 17.823202 1805.738966 15.853776 -10.082929 -0.672998 0.623897 5.369207 -13.369724 33.895995 31.426090 0.000003 0.000000 4.415002 12.485686 -7.556330 0.204259 -0.000000 0.000004 10.273304 6.754459 22.022154 8.331939 0.000001 -0.000003 2.173901 1.562401 -2.736950 0.127286 2.359900 -0.565200 5.928093 -5.089209 12.776000 -2.216327 5.443693 0.000005 -0.000002 -63.899780 -1.139373 -93.597046 0.000000 -0.000003 -10.615786 545.081717 -163.202548 180.448147 0.000000 -0.000007 -13.110293 -1083.724368 1.358787 4.644078 -2.636601 -1.718799 6.889697 193.539229 -196.162364 191.492673 -4.139101 0.000004 0.000001 460.255685 -389.436623 465.708853 0.000001 -0.000002 -10.471800 -1.345982 -23.174980 -372.813308 0.000003 -0.000001 -12.281899 386.073984 7.412748 33.643097 2.273398 0.176699 -2.518006 -34.923970 -145.248030 -45.908772 0.000002 -0.000005 -20.456398 20.581720 173.237052 -47.179023 -0.000006 -0.000005 -16.635298 71.659695 19.470129 43.890259 -1.914795 0.018104 -2.699301 41.319636 197.550285 99.140688 0.000001 -0.000005 -20.148903 -7.234879 -191.888605 27.301823 -0.000000 -0.000005 -16.838299 392.586733 61.920904 -69.091318
-19.125799 1.319305 17.614403 1805.345438 15.393686 -10.611441 -0.672999 0.623891 5.369203 -13.339478 33.611808 31.436980 0.000001 -0.000002 4.415008 12.522184 -7.615916 0.204124 -0.000002 0.000001 10.273302 7.108966 22.473860 8.234198 0.000000 -0.000001 2.173901 1.683398 -2.311407 0.142882 2.359899 -0.565199 5.928099 -4.480424 12.653228 -2.970887 5.443691 0.000004 -0.000002 -64.032436 -1.061527 -94.501124 -0.000002 -0.000003 -10.615793 548.487959 -159.798368 181.940489 0.000001 -0.000006 -13.110300 -1091.470240 -1.167171 6.905431 -2.636602 -1.718803 6.889702 193.141084 -195.691299 192.133331 -4.139096 0.000001 -0.000004 460.354750 -388.490505 467.629721 -0.000004 -0.000002 -10.471801 -1.262571 -25.160224 -373.637111 0.000000 0.000000 -12.281902 388.683034 6.590012 32.758649 2.273396 0.176701 -2.518001 -34.887035 -145.143391 -45.851255 0.000001 -0.000001 -20.456398 20.907192 173.868066 -47.241102 -0.000010 -0.000006 -16.635294 71.923012 19.894019 44.629409 -1.914798 0.018101 -2.699296 41.442688 197.666904 98.508096 0.000001 0.000001 -20.148907 -7.323615 -191.720350 26.908418 -0.000003 -0.000004 -16.838303 389.756139 61.345672 -63.843294
